<svg xmlns="http://www.w3.org/2000/svg" xmlns:xlink="http://www.w3.org/1999/xlink" version="1.1" x="0px" y="0px" width="100px" height="100px" viewBox="0 0 100 100" enable-background="new 0 0 100 100" xml:space="preserve">
<g id="Captions">
</g>
<g id="Your_Icon">
	<polygon points="4.7,84 93.8,84 93.8,11.1 53.3,11.1 53.3,19.2 85.7,19.2 85.7,75.899 12.8,75.899 12.8,51.601 4.7,51.601  "/>
	<polygon points="37.1,3 29,3 20.899,3 12.8,3 4.7,3 4.7,19.2 12.8,19.2 12.8,11.1 20.899,11.1 20.899,35.4 12.8,35.4 12.8,43.5    20.899,43.5 29,43.5 37.1,43.5 37.1,35.4 29,35.4 29,11.1 37.1,11.1 37.1,19.2 45.2,19.2 45.2,11.1 45.2,3  "/>
</g>
</svg>